<?xml version="1.0" encoding="UTF-8"?>
<svg xmlns="http://www.w3.org/2000/svg" width="128" height="128" viewBox="0 0 128 128">
  <defs>
    <linearGradient id="bg" x1="0" y1="0" x2="1" y2="1">
      <stop offset="0%" stop-color="#101010"/>
      <stop offset="100%" stop-color="#1b1b1b"/>
    </linearGradient>
  </defs>
  <rect x="6" y="6" width="116" height="116" rx="16" fill="url(#bg)" stroke="#2a2a2a" stroke-width="3"/>
  <rect x="20" y="26" width="88" height="52" rx="8" fill="#141414" stroke="#303030" stroke-width="2"/>
  <g fill="none" stroke="#22d056" stroke-width="2">
    <rect x="26" y="34" width="10" height="8" rx="1"/>
    <rect x="39" y="34" width="10" height="8" rx="1"/>
    <rect x="52" y="34" width="10" height="8" rx="1"/>
    <rect x="65" y="34" width="10" height="8" rx="1"/>
    <rect x="78" y="34" width="10" height="8" rx="1"/>
    <rect x="91" y="34" width="10" height="8" rx="1"/>
    <rect x="26" y="46" width="10" height="8" rx="1"/>
    <rect x="39" y="46" width="10" height="8" rx="1"/>
    <rect x="52" y="46" width="10" height="8" rx="1"/>
    <rect x="65" y="46" width="10" height="8" rx="1"/>
    <rect x="78" y="46" width="10" height="8" rx="1"/>
    <rect x="91" y="46" width="10" height="8" rx="1"/>
    <rect x="26" y="58" width="23" height="8" rx="1"/>
    <rect x="52" y="58" width="36" height="8" rx="1"/>
    <rect x="91" y="58" width="10" height="8" rx="1"/>
  </g>
  <g>
    <rect x="52" y="86" width="24" height="30" rx="12" fill="#151515" stroke="#313131" stroke-width="2"/>
    <rect x="62" y="92" width="4" height="10" rx="2" fill="#22d056"/>
  </g>
</svg>
